<svg width="28" height="28" viewBox="0 0 28 28" fill="none" xmlns="http://www.w3.org/2000/svg">
<path d="M11.0705 8.16669H7.23356C5.92677 8.16669 5.27289 8.16669 4.77376 8.42101C4.33472 8.64471 3.97802 9.00141 3.75432 9.44045C3.5 9.93958 3.5 10.5935 3.5 11.9002V18.4336C3.5 19.7404 3.5 20.3929 3.75432 20.892C3.97802 21.331 4.33472 21.6889 4.77376 21.9126C5.2724 22.1667 5.92549 22.1667 7.22973 22.1667H20.7703C22.0745 22.1667 22.7267 22.1667 23.2253 21.9126C23.6643 21.6889 24.0222 21.331 24.2459 20.892C24.5 20.3933 24.5 19.7412 24.5 18.437V11.8964C24.5 10.5922 24.5 9.93909 24.2459 9.44045C24.0222 9.00141 23.6643 8.64471 23.2253 8.42101C22.7262 8.16669 22.0737 8.16669 20.7669 8.16669H16.9293M11.0705 8.16669H11.1426M11.0705 8.16669C11.0851 8.16669 11.1005 8.16669 11.1167 8.16669L11.1426 8.16669M11.0705 8.16669C10.9467 8.16663 10.8773 8.16599 10.8224 8.15985C10.1369 8.0831 9.66674 7.43061 9.81071 6.756C9.82411 6.69322 9.85059 6.61379 9.90302 6.45649L9.90527 6.44984C9.96516 6.27019 9.9951 6.18036 10.0282 6.10109C10.3668 5.28956 11.1338 4.73765 12.0107 4.673C12.0964 4.66669 12.1905 4.66669 12.3799 4.66669H15.62C15.8094 4.66669 15.9043 4.66669 15.9899 4.673C16.8669 4.73765 17.633 5.28956 17.9717 6.10109C18.0048 6.18036 18.0348 6.27009 18.0947 6.44973C18.1487 6.61151 18.1756 6.69244 18.1892 6.75611C18.3332 7.43072 17.8638 8.0831 17.1782 8.15985C17.1234 8.16599 17.0533 8.16663 16.9293 8.16669M11.1426 8.16669H16.8571M16.8571 8.16669H16.9293M16.8571 8.16669L16.883 8.16669C16.8993 8.16669 16.9147 8.16669 16.9293 8.16669M14 18.6667C12.067 18.6667 10.5 17.0997 10.5 15.1667C10.5 13.2337 12.067 11.6667 14 11.6667C15.933 11.6667 17.5 13.2337 17.5 15.1667C17.5 17.0997 15.933 18.6667 14 18.6667Z" stroke="#2D2C38" stroke-width="2" stroke-linecap="round" stroke-linejoin="round"/>
</svg>
