<svg width="27" height="27" viewBox="0 0 27 27" fill="none" xmlns="http://www.w3.org/2000/svg">
<path d="M12.3496 2.12695C12.7717 1.1149 14.2283 1.1149 14.6504 2.12695L14.6885 2.23145L17.0752 9.57812H24.8008C25.9735 9.57842 26.4827 11.0326 25.623 11.7705L25.5352 11.8398L19.2852 16.3789L21.6729 23.7266L21.7031 23.834C21.9565 24.901 20.7782 25.7567 19.8418 25.1855L19.749 25.124L13.5 20.583L7.25098 25.124C6.27136 25.8358 4.95307 24.8782 5.32715 23.7266L7.71387 16.3789L1.46484 11.8398C0.485299 11.1282 0.988574 9.57843 2.19922 9.57812H9.9248L12.3115 2.23145L12.3496 2.12695Z" stroke="black" stroke-width="1.5"/>
</svg>
