<svg width="27" height="27" viewBox="0 0 27 27" fill="none" xmlns="http://www.w3.org/2000/svg">
<path d="M16.875 20.25H11.25M20.25 15.75H11.25M4.5 24.75H22.5C23.0967 24.75 23.669 24.5129 24.091 24.091C24.5129 23.669 24.75 23.0967 24.75 22.5V4.5C24.75 3.90326 24.5129 3.33097 24.091 2.90901C23.669 2.48705 23.0967 2.25 22.5 2.25H9C8.40326 2.25 7.83097 2.48705 7.40901 2.90901C6.98705 3.33097 6.75 3.90326 6.75 4.5V22.5C6.75 23.0967 6.51295 23.669 6.09099 24.091C5.66903 24.5129 5.09674 24.75 4.5 24.75ZM4.5 24.75C3.90326 24.75 3.33097 24.5129 2.90901 24.091C2.48705 23.669 2.25 23.0967 2.25 22.5V12.375C2.25 11.7783 2.48705 11.206 2.90901 10.784C3.33097 10.3621 3.90326 10.125 4.5 10.125H6.75M12.375 6.75H19.125C19.7463 6.75 20.25 7.25368 20.25 7.875V10.125C20.25 10.7463 19.7463 11.25 19.125 11.25H12.375C11.7537 11.25 11.25 10.7463 11.25 10.125V7.875C11.25 7.25368 11.7537 6.75 12.375 6.75Z" stroke="black" stroke-width="2" stroke-linecap="round" stroke-linejoin="round"/>
</svg>
