<svg width="36" height="35" viewBox="0 0 36 35" fill="none" xmlns="http://www.w3.org/2000/svg">
<path d="M16.6201 1.64746C17.1433 0.392092 18.9917 0.43361 19.4268 1.77246L22.7412 11.9746L22.7725 12.0479C22.857 12.2126 23.0272 12.3193 23.2168 12.3193H33.9434C35.3511 12.3193 35.962 14.0647 34.9297 14.9502L34.8252 15.0332L26.1475 21.3379C25.9722 21.4652 25.8989 21.6915 25.9658 21.8975L29.2803 32.0986L29.3164 32.2275C29.6207 33.508 28.2068 34.535 27.083 33.8496L26.9717 33.7754L18.2939 27.4707C18.1406 27.3594 17.9396 27.3452 17.7744 27.4287L17.7061 27.4707L9.02832 33.7754C7.85275 34.6295 6.2707 33.4806 6.71973 32.0986L10.0342 21.8975L10.0527 21.8193C10.0771 21.6626 10.0258 21.5032 9.91406 21.3906L9.85254 21.3379L1.1748 15.0332C-0.000714302 14.1791 0.603571 12.3193 2.05664 12.3193H12.7832C12.9997 12.3193 13.1917 12.1804 13.2588 11.9746L16.5732 1.77246L16.6201 1.64746Z" fill="#3C751E" stroke="black"/>
</svg>
