<svg width="32" height="26" viewBox="0 0 32 26" fill="none" xmlns="http://www.w3.org/2000/svg">
<path d="M1 25H4M4 25H13M4 25V12.4468C4 11.6621 4 11.2695 4.09746 10.9044C4.18382 10.5808 4.32669 10.2746 4.51855 9.99786C4.73506 9.6856 5.03596 9.42666 5.63916 8.90991L12.8415 2.73986C13.9598 1.78191 14.5189 1.3029 15.1486 1.12058C15.7039 0.959807 16.2958 0.959807 16.8511 1.12058C17.4813 1.30304 18.0412 1.7825 19.1611 2.74189L26.3611 8.90991C26.9643 9.42664 27.2653 9.6856 27.4819 9.99786C27.6737 10.2746 27.8155 10.5808 27.9019 10.9044C27.9993 11.2695 28 11.6621 28 12.4468V25M13 25H19M13 25V19.1257C13 17.5035 14.3431 16.1885 16 16.1885C17.6569 16.1885 19 17.5035 19 19.1257V25M19 25H28M28 25H31" stroke="black" stroke-width="2" stroke-linecap="round" stroke-linejoin="round"/>
</svg>
