<svg width="83" height="83" viewBox="0 0 83 83" fill="none" xmlns="http://www.w3.org/2000/svg">
<path d="M29.9837 48.4165H13.8333C10.0292 48.4165 6.91667 51.529 6.91667 55.3332V76.0832H29.9837V48.4165Z" fill="#3C751E" stroke="#E2F0DA" stroke-width="2" stroke-miterlimit="10" stroke-linecap="round" stroke-linejoin="round"/>
<path d="M46.0996 34.5835H36.8658C33.0617 34.5835 29.9492 37.696 29.9492 41.5002V76.0835H53.0163V41.5002C53.0163 37.696 49.9383 34.5835 46.0996 34.5835Z" fill="#3C751E" stroke="#E2F0DA" stroke-width="2" stroke-miterlimit="10" stroke-linecap="round" stroke-linejoin="round"/>
<path d="M69.1667 58.7915H53.0163V76.0832H76.0833V65.7082C76.0833 61.904 72.9708 58.7915 69.1667 58.7915Z" fill="#3C751E" stroke="#E2F0DA" stroke-width="2" stroke-miterlimit="10" stroke-linecap="round" stroke-linejoin="round"/>
<path d="M43.2983 7.15875L45.1312 10.8246C45.3733 11.3433 46.0304 11.8275 46.5838 11.8966L49.9038 12.45C52.0133 12.7958 52.5321 14.352 51.0104 15.8391L48.4167 18.4328C47.9671 18.8824 47.725 19.7125 47.8633 20.3004L48.5896 23.4821C49.1775 26.0067 47.8287 26.975 45.6154 25.6609L42.5029 23.8279C41.9496 23.4821 41.0158 23.4821 40.4625 23.8279L37.35 25.6609C35.1367 26.975 33.7879 26.0067 34.3758 23.4821L35.1021 20.3004C35.2404 19.7125 34.9983 18.8478 34.5488 18.4328L31.9896 15.8737C30.4679 14.352 30.9521 12.8303 33.0962 12.4845L36.4162 11.9313C36.9696 11.8275 37.6267 11.3434 37.8688 10.8592L39.7017 7.19326C40.7046 5.18743 42.2954 5.1875 43.2983 7.15875Z" fill="#3C751E" stroke="#E2F0DA" stroke-width="2" stroke-linecap="round" stroke-linejoin="round"/>
</svg>
